<svg width="20" height="20" viewBox="0 0 20 20" fill="none" xmlns="http://www.w3.org/2000/svg">
<g id="vuesax/bold/timer">
<g id="timer">
<path id="Vector" d="M14.4916 13.0583L11.1249 10H8.86657L5.4999 13.0583C4.55823 13.9083 4.2499 15.2167 4.70823 16.4C5.16657 17.575 6.28323 18.3333 7.54157 18.3333H12.4499C13.7166 18.3333 14.8249 17.575 15.2832 16.4C15.7416 15.2167 15.4332 13.9083 14.4916 13.0583ZM11.5166 15.1167H8.48323C8.16657 15.1167 7.91657 14.8583 7.91657 14.55C7.91657 14.2417 8.1749 13.9833 8.48323 13.9833H11.5166C11.8332 13.9833 12.0832 14.2417 12.0832 14.55C12.0832 14.8583 11.8249 15.1167 11.5166 15.1167Z" fill="#FFC238"/>
<path id="Vector_2" d="M15.2919 3.60008C14.8335 2.42508 13.7169 1.66675 12.4585 1.66675H7.54188C6.28355 1.66675 5.16688 2.42508 4.70855 3.60008C4.25855 4.78341 4.56688 6.09175 5.50855 6.94175L8.87521 10.0001H11.1335L14.5002 6.94175C15.4335 6.09175 15.7419 4.78341 15.2919 3.60008ZM11.5169 6.02508H8.48355C8.16688 6.02508 7.91688 5.76675 7.91688 5.45841C7.91688 5.15008 8.17522 4.89175 8.48355 4.89175H11.5169C11.8335 4.89175 12.0835 5.15008 12.0835 5.45841C12.0835 5.76675 11.8252 6.02508 11.5169 6.02508Z" fill="#FFC238"/>
</g>
</g>
</svg>
